<svg width="28" height="30" viewBox="0 0 28 30" fill="none" xmlns="http://www.w3.org/2000/svg">
<path d="M14.5195 7.55078H6.51953C6.25432 7.55078 5.99996 7.65614 5.81242 7.84367C5.62489 8.03121 5.51953 8.28556 5.51953 8.55078C5.51953 8.816 5.62489 9.07035 5.81242 9.25789C5.99996 9.44542 6.25432 9.55078 6.51953 9.55078H14.5195C14.7847 9.55078 15.0391 9.44542 15.2266 9.25789C15.4142 9.07035 15.5195 8.816 15.5195 8.55078C15.5195 8.28556 15.4142 8.03121 15.2266 7.84367C15.0391 7.65614 14.7847 7.55078 14.5195 7.55078Z" fill="#04091E"/>
<path d="M14.5195 12.8984H6.51953C6.25432 12.8984 5.99996 13.0038 5.81242 13.1913C5.62489 13.3789 5.51953 13.6332 5.51953 13.8984C5.51953 14.1637 5.62489 14.418 5.81242 14.6055C5.99996 14.7931 6.25432 14.8984 6.51953 14.8984H14.5195C14.7847 14.8984 15.0391 14.7931 15.2266 14.6055C15.4142 14.418 15.5195 14.1637 15.5195 13.8984C15.5195 13.6332 15.4142 13.3789 15.2266 13.1913C15.0391 13.0038 14.7847 12.8984 14.5195 12.8984Z" fill="#04091E"/>
<path d="M14.5195 18.3711H6.51953C6.25432 18.3711 5.99996 18.4764 5.81242 18.664C5.62489 18.8515 5.51953 19.1059 5.51953 19.3711C5.51953 19.6363 5.62489 19.8907 5.81242 20.0782C5.99996 20.2657 6.25432 20.3711 6.51953 20.3711H14.5195C14.7847 20.3711 15.0391 20.2657 15.2266 20.0782C15.4142 19.8907 15.5195 19.6363 15.5195 19.3711C15.5195 19.1059 15.4142 18.8515 15.2266 18.664C15.0391 18.4764 14.7847 18.3711 14.5195 18.3711Z" fill="#04091E"/>
<path d="M23.8703 0H4.13029C3.61729 0.00130864 3.10958 0.103814 2.63626 0.301646C2.16294 0.499477 1.7333 0.788746 1.37195 1.15288C1.01059 1.51702 0.724634 1.94887 0.530445 2.4237C0.336256 2.89853 0.237653 3.407 0.240286 3.92V28.31C0.239631 28.5603 0.305608 28.8062 0.43144 29.0226C0.557272 29.2389 0.738424 29.4179 0.956291 29.5411C1.17416 29.6643 1.42089 29.7272 1.67114 29.7235C1.9214 29.7198 2.16616 29.6496 2.38029 29.52L6.06029 27.31C6.1158 27.2754 6.17989 27.2571 6.24529 27.2571C6.31068 27.2571 6.37477 27.2754 6.43029 27.31L10.5203 29.76C10.7354 29.8971 10.9852 29.97 11.2403 29.97C11.497 29.9687 11.7488 29.8997 11.9703 29.77L16.0803 27.31C16.1358 27.2754 16.1999 27.2571 16.2653 27.2571C16.3307 27.2571 16.3948 27.2754 16.4503 27.31L20.1103 29.52C20.3251 29.6476 20.5704 29.715 20.8203 29.715C21.0702 29.715 21.3155 29.6476 21.5303 29.52C21.7454 29.397 21.9243 29.2194 22.0489 29.0052C22.1736 28.7911 22.2396 28.5478 22.2403 28.3V11.44H25.3803C26.0107 11.4374 26.6145 11.1858 27.0603 10.74C27.5061 10.2942 27.7577 9.6904 27.7603 9.06V3.92C27.7629 3.407 27.6643 2.89853 27.4701 2.4237C27.2759 1.94887 26.99 1.51702 26.6286 1.15288C26.2673 0.788746 25.8376 0.499477 25.3643 0.301646C24.891 0.103814 24.3833 0.00130864 23.8703 0ZM20.2403 27.26L17.4803 25.6C17.1126 25.3817 16.6929 25.2665 16.2653 25.2665C15.8377 25.2665 15.418 25.3817 15.0503 25.6L11.2503 27.88L7.46029 25.59C7.08822 25.3675 6.66243 25.2508 6.22889 25.2525C5.79535 25.2543 5.37053 25.3744 5.00029 25.6L2.24029 27.27V3.92C2.23631 3.66929 2.28225 3.42029 2.37545 3.18751C2.46865 2.95473 2.60723 2.74283 2.78313 2.56413C2.95903 2.38544 3.16873 2.24353 3.40002 2.14668C3.6313 2.04983 3.87954 1.99997 4.13029 2H20.6503C20.3862 2.5031 20.2457 3.06183 20.2403 3.63V27.23V27.26ZM25.7603 9.06C25.7603 9.16078 25.7203 9.25744 25.649 9.3287C25.5777 9.39997 25.4811 9.44 25.3803 9.44H22.2403V3.66C22.2363 3.44343 22.2755 3.22825 22.3556 3.02701C22.4358 2.82577 22.5552 2.64252 22.707 2.48797C22.8587 2.33342 23.0398 2.21067 23.2395 2.12688C23.4392 2.0431 23.6537 1.99996 23.8703 2C24.3715 2 24.8523 2.19912 25.2067 2.55357C25.5612 2.90801 25.7603 3.38874 25.7603 3.89V9.06Z" fill="#04091E"/>
</svg>
