<svg width="32" height="32" viewBox="0 0 32 32" fill="none" xmlns="http://www.w3.org/2000/svg">
<path d="M31.8129 13.3905C32.1963 12.3857 31.9846 11.204 31.1762 10.3956L21.603 0.822422C20.5064 -0.274203 18.722 -0.274078 17.6255 0.822422L6.86294 11.585H2.8125C1.26169 11.585 0 12.8467 0 14.3975V29.1861C0 30.7369 1.26169 31.9986 2.8125 31.9986H29.1875C30.7383 31.9986 32 30.7369 32 29.1861V14.3975C32 14.0427 31.9333 13.7034 31.8129 13.3905ZM29.7766 11.6476C29.5866 11.6069 29.3896 11.585 29.1875 11.585H27.1561L28.4351 10.306L29.7766 11.6476ZM27.1092 8.98024L24.5044 11.585H21.8527L25.7834 7.65436L27.1092 8.98024ZM18.9514 2.14823C19.1342 1.96548 19.3743 1.87405 19.6143 1.87405C19.8544 1.87405 20.0944 1.96548 20.2772 2.14823L24.4576 6.32861L19.2011 11.5851H9.5145L18.9514 2.14823ZM30.125 29.1861C30.125 29.703 29.7044 30.1236 29.1875 30.1236H2.8125C2.29556 30.1236 1.875 29.703 1.875 29.1861V14.3975C1.875 13.8806 2.29556 13.46 2.8125 13.46H29.1875C29.7044 13.46 30.125 13.8806 30.125 14.3975V29.1861Z" fill="#04091E"/>
<path d="M3.6875 25.4102H8.05644V27.2852H3.6875V25.4102Z" fill="#04091E"/>
<path d="M10.4395 25.4102H14.8083V27.2852H10.4395V25.4102Z" fill="#04091E"/>
<path d="M17.1914 25.4102H21.5603V27.2852H17.1914V25.4102Z" fill="#04091E"/>
<path d="M23.9434 25.4102H28.3123V27.2852H23.9434V25.4102Z" fill="#04091E"/>
<path d="M8.51669 15.9609H5.3125C4.45094 15.9609 3.75 16.6619 3.75 17.5234V20.0234C3.75 20.885 4.45094 21.5859 5.3125 21.5859H8.51669C9.37825 21.5859 10.0792 20.885 10.0792 20.0234V17.5234C10.0792 16.6619 9.37825 15.9609 8.51669 15.9609ZM8.20419 19.7109H5.625V17.8359H8.20419V19.7109Z" fill="#04091E"/>
</svg>
