<svg width="1053" height="527" viewBox="0 0 1053 527" fill="none" xmlns="http://www.w3.org/2000/svg">
<g opacity="0.5">
<mask id="path-1-inside-1_383_369" fill="white">
<path d="M1053 526.5C1053 457.359 1039.38 388.895 1012.92 325.017C986.463 261.139 947.682 203.098 898.792 154.208C849.902 105.318 791.861 66.5365 727.983 40.0774C664.105 13.6183 595.641 -3.02225e-06 526.5 0C457.359 3.02225e-06 388.895 13.6183 325.017 40.0774C261.139 66.5365 203.098 105.318 154.208 154.208C105.318 203.098 66.5365 261.139 40.0774 325.017C13.6183 388.895 -6.04449e-06 457.359 0 526.5L526.5 526.5H1053Z"/>
</mask>
<path d="M1053 526.5C1053 457.359 1039.38 388.895 1012.92 325.017C986.463 261.139 947.682 203.098 898.792 154.208C849.902 105.318 791.861 66.5365 727.983 40.0774C664.105 13.6183 595.641 -3.02225e-06 526.5 0C457.359 3.02225e-06 388.895 13.6183 325.017 40.0774C261.139 66.5365 203.098 105.318 154.208 154.208C105.318 203.098 66.5365 261.139 40.0774 325.017C13.6183 388.895 -6.04449e-06 457.359 0 526.5L526.5 526.5H1053Z" fill="url(#paint0_linear_383_369)" fill-opacity="0.2" stroke="url(#paint1_linear_383_369)" stroke-width="2" mask="url(#path-1-inside-1_383_369)"/>
</g>
<defs>
<linearGradient id="paint0_linear_383_369" x1="526.5" y1="58.4129" x2="526.5" y2="526.892" gradientUnits="userSpaceOnUse">
<stop stop-color="#C7D5F6"/>
<stop offset="1" stop-color="white"/>
</linearGradient>
<linearGradient id="paint1_linear_383_369" x1="526.5" y1="0" x2="526.5" y2="507.682" gradientUnits="userSpaceOnUse">
<stop stop-color="#CFD3EE"/>
<stop offset="1" stop-color="white" stop-opacity="0"/>
</linearGradient>
</defs>
</svg>
