<svg width="195" height="69" viewBox="0 0 195 69" fill="none" xmlns="http://www.w3.org/2000/svg">
<path d="M160.953 20.8227L160.431 20.4492C157.288 18.2045 154.808 16.4362 154.808 12.5832C154.808 9.27145 156.707 7.52218 160.306 7.52218C163.055 7.52218 165.659 8.50543 165.683 8.51687L165.796 8.55879H166.888V3.89026L166.443 3.74544C166.318 3.70352 163.39 2.78125 159.99 2.78125C153.143 2.78125 149.217 6.50464 149.217 12.9987C149.217 18.7152 152.246 21.3029 155.896 23.8715L156.555 24.3365C159.678 26.5431 162.622 28.6201 162.622 33.0409C162.622 36.8062 160.446 38.8794 156.493 38.8794C153.401 38.8794 150.55 37.557 150.519 37.5456L150.387 37.4846H149.217V42.2141L149.607 42.3818C149.728 42.4313 152.586 43.628 156.543 43.628C163.963 43.628 168.213 39.6035 168.213 32.5836C168.213 26.5202 165.067 23.7801 160.953 20.8342" fill="#FF6600"/>
<path d="M178.492 3.08984H172.951V43.3078H178.492V3.08984Z" fill="#FF6600"/>
<path d="M0.195306 37.8169H0.99073C1.84074 37.8169 2.23846 37.6225 2.53869 36.7422L13.0703 8.59766H19.9055L30.3864 36.7422C30.6866 37.6187 31.0882 37.8169 31.9343 37.8169H32.7336V43.2324H28.8384C26.343 43.2324 25.4461 42.5998 24.6468 40.4046L22.4516 34.3565H10.4734L8.27823 40.4046C7.4828 42.5998 6.63279 43.2324 4.13344 43.2324H0.191406V37.8169H0.195306ZM20.9543 29.0858L17.9091 20.4043C17.2619 18.5026 16.5132 15.2327 16.5132 15.2327H16.4157C16.4157 15.2327 15.6671 18.5026 15.0159 20.4043L11.9746 29.0858H20.9582H20.9543Z" fill="white"/>
<path d="M64.332 17.7695C72.1186 17.7695 78.3066 23.185 78.3066 30.7919C78.3066 38.3987 72.1186 43.8142 64.332 43.8142C56.5455 43.8142 50.4082 38.452 50.4082 30.7919C50.4082 23.1317 56.5961 17.7695 64.332 17.7695ZM64.332 38.5473C68.4729 38.5473 71.9159 35.4223 71.9159 30.7919C71.9159 26.1614 68.469 23.0364 64.332 23.0364C60.1951 23.0364 56.795 26.2072 56.795 30.7919C56.795 35.3765 60.2418 38.5473 64.332 38.5473Z" fill="white"/>
<path d="M83.9455 24.6951C83.9455 23.9634 83.5439 23.6204 82.846 23.6204H80.8496V18.3535H86.8894C89.2367 18.3535 90.2348 19.3787 90.2348 21.6234V33.087C90.2348 36.113 91.0342 38.1595 94.1769 38.1595C98.7701 38.1595 101.312 34.2074 101.312 29.7676V18.3535H107.648V36.9361C107.648 37.6183 108.05 38.0109 108.748 38.0109H110.74V43.232H104.903C102.708 43.232 101.558 42.2068 101.558 40.4499V39.7678C101.558 39.1847 101.609 38.6473 101.609 38.6473H101.511C100.314 41.2312 97.1168 43.8189 92.7303 43.8189C87.2871 43.8189 83.9455 41.1359 83.9455 34.3561V24.6951Z" fill="white"/>
<path d="M22.9277 45.6777L16.4513 54.1573L10.0762 45.6777H22.9277Z" fill="#FF6600"/>
<path d="M43.8615 18.3523V13.2227H37.6736V18.3523L37.5254 23.28V37.7086C37.5254 42.884 42.6995 43.2194 43.6977 43.2346H43.8615V23.28H49.6517V18.3523H43.8615Z" fill="white"/>
<path d="M122.656 18.3523V13.2227H116.468V18.3523L116.32 23.28V37.7086C116.32 42.884 121.494 43.2194 122.493 43.2346H122.656V23.28H128.447V18.3523H122.656Z" fill="white"/>
<path d="M139.301 5.25823C135.772 3.08594 131.721 3.08594 128.462 3.08594H117.002V7.87642H128.992C131.257 7.87642 133.819 7.87642 135.932 9.3208C138.896 11.3407 140.104 15.3575 140.104 23.1968C140.104 31.0361 138.896 35.0529 135.932 37.0728C133.823 38.5134 131.257 38.5134 128.992 38.5134H127.21V43.3077H128.458C131.776 43.3077 135.531 43.3077 139.028 41.1925C143.711 38.3571 145.801 32.793 145.801 23.1473C145.801 13.5015 143.797 8.05935 139.297 5.25823" fill="#FF6600"/>
<path d="M0.191406 57.0625H1.05312V63.7547H5.35387V64.5321H0.191406V57.0625Z" fill="white"/>
<path d="M6.15234 61.7871V61.7642C6.15234 60.175 7.29869 58.8945 8.85835 58.8945C10.5272 58.8945 11.4903 60.1979 11.4903 61.8062C11.4903 61.9129 11.4903 61.9777 11.4786 62.0729H7.00236C7.12323 63.2696 7.98494 63.9403 8.99092 63.9403C9.76685 63.9403 10.3127 63.6317 10.7689 63.1629L11.2914 63.6202C10.7221 64.2376 10.0359 64.6568 8.96752 64.6568C7.41567 64.6568 6.15234 63.4945 6.15234 61.7871ZM10.6403 61.467C10.5545 60.4647 9.96181 59.5881 8.83885 59.5881C7.85627 59.5881 7.11543 60.3885 7.00626 61.467H10.6403Z" fill="white"/>
<path d="M12.2988 63.8265L12.7238 63.2396C13.336 63.6893 14.0106 63.9446 14.6773 63.9446C15.3441 63.9446 15.847 63.6016 15.847 63.0681V63.0452C15.847 62.4888 15.1803 62.2754 14.4395 62.0734C13.5544 61.8295 12.5718 61.5284 12.5718 60.5147V60.4918C12.5718 59.5429 13.3789 58.9141 14.494 58.9141C15.1803 58.9141 15.9445 59.1503 16.5255 59.5238L16.1434 60.1412C15.6209 59.8097 15.0204 59.6077 14.4745 59.6077C13.8078 59.6077 13.3828 59.9507 13.3828 60.408V60.4309C13.3828 60.953 14.0807 61.155 14.8333 61.3798C15.7067 61.6351 16.6464 61.9667 16.6464 62.9576V62.9804C16.6464 64.0247 15.7613 64.6344 14.6383 64.6344C13.8312 64.6344 12.9344 64.3257 12.3027 63.8227L12.2988 63.8265Z" fill="white"/>
<path d="M20.7402 61.7985V61.7757C20.7402 60.217 21.9841 58.8945 23.6334 58.8945C24.7018 58.8945 25.3685 59.3328 25.8949 59.8778L25.3373 60.4532C24.8889 59.9959 24.3859 59.6224 23.6217 59.6224C22.4753 59.6224 21.6019 60.5714 21.6019 61.7566V61.7795C21.6019 62.9762 22.4987 63.9251 23.6763 63.9251C24.3976 63.9251 24.9552 63.5745 25.3997 63.1019L25.9339 63.5935C25.3646 64.2109 24.6901 64.6606 23.6295 64.6606C21.9802 64.6606 20.7363 63.3496 20.7363 61.8024L20.7402 61.7985Z" fill="white"/>
<path d="M27.127 59.0132H27.9692V60.4538C28.3825 59.5353 29.2013 58.876 30.2736 58.9179V59.8021H30.2073C28.9751 59.8021 27.9692 60.6672 27.9692 62.3326V64.5316H27.127V59.0132Z" fill="white"/>
<path d="M30.7598 61.7873V61.7644C30.7598 60.1752 31.9061 58.8947 33.4658 58.8947C35.1346 58.8947 36.0977 60.1981 36.0977 61.8064C36.0977 61.9131 36.0977 61.9778 36.086 62.0731H31.6098C31.7307 63.2698 32.5924 63.9405 33.5983 63.9405C34.3743 63.9405 34.9201 63.6318 35.3763 63.1631L35.8988 63.6204C35.3296 64.2378 34.6433 64.657 33.5749 64.657C32.0231 64.657 30.7598 63.4946 30.7598 61.7873ZM35.2477 61.4672C35.1619 60.4649 34.5692 59.5883 33.4463 59.5883C32.4637 59.5883 31.7229 60.3886 31.6137 61.4672H35.2477ZM34.1442 56.6348L35.0176 57.0311L33.7738 58.182H33.1187L34.1442 56.6348Z" fill="white"/>
<path d="M36.9531 62.9316V62.9087C36.9531 61.7463 37.9357 61.1251 39.3667 61.1251C40.088 61.1251 40.5988 61.2204 41.1018 61.3614V61.1709C41.1018 60.18 40.4779 59.6655 39.4213 59.6655C38.7545 59.6655 38.232 59.837 37.7057 60.0695L37.4561 59.3987C38.08 59.1205 38.6882 58.9414 39.5071 58.9414C40.3259 58.9414 40.9147 59.1434 41.3319 59.5512C41.714 59.9247 41.9089 60.4582 41.9089 61.1632V64.536H41.1018V63.7052C40.708 64.2083 40.0529 64.6542 39.0587 64.6542C38.0098 64.6542 36.9531 64.0673 36.9531 62.9354V62.9316ZM41.1096 62.5047V61.9712C40.6963 61.853 40.1387 61.7349 39.4486 61.7349C38.388 61.7349 37.7992 62.1846 37.7992 62.8782V62.9011C37.7992 63.5947 38.4543 63.9987 39.2185 63.9987C40.2557 63.9987 41.1057 63.3813 41.1057 62.5047H41.1096Z" fill="white"/>
<path d="M43.7407 63.068V59.7372H42.9531V59.0131H43.7407V57.3477H44.583V59.0131H46.3727V59.7372H44.583V62.9613C44.583 63.6321 44.9651 63.8798 45.5344 63.8798C45.819 63.8798 46.0568 63.8264 46.3532 63.6892V64.3943C46.0568 64.5429 45.741 64.6306 45.3394 64.6306C44.4348 64.6306 43.7447 64.1923 43.7447 63.0718L43.7407 63.068Z" fill="white"/>
<path d="M47.1484 61.7871V61.7642C47.1484 60.175 48.2948 58.8945 49.8544 58.8945C51.5233 58.8945 52.4864 60.1979 52.4864 61.8062C52.4864 61.9129 52.4864 61.9777 52.4747 62.0729H47.9985C48.1193 63.2696 48.981 63.9403 49.987 63.9403C50.7629 63.9403 51.3088 63.6317 51.765 63.1629L52.2875 63.6202C51.7182 64.2376 51.032 64.6568 49.9636 64.6568C48.4118 64.6568 47.1484 63.4945 47.1484 61.7871ZM51.6363 61.467C51.5506 60.4647 50.9579 59.5881 49.8349 59.5881C48.8524 59.5881 48.1115 60.3885 48.0024 61.467H51.6363Z" fill="white"/>
<path d="M53.6758 62.4398V59.0137H54.518V62.2378C54.518 63.263 55.0873 63.9032 56.0776 63.9032C57.068 63.9032 57.7699 63.2096 57.7699 62.173V59.0137H58.6004V64.5321H57.7699V63.5717C57.3878 64.17 56.8107 64.6502 55.8359 64.6502C54.4712 64.6502 53.6758 63.7546 53.6758 62.4398Z" fill="white"/>
<path d="M60.293 59.0132H61.1352V60.4538C61.5485 59.5353 62.3673 58.876 63.4396 58.9179V59.8021H63.3733C62.1412 59.8021 61.1352 60.6672 61.1352 62.3326V64.5316H60.293V59.0132Z" fill="white"/>
<path d="M64.0469 63.8265L64.4719 63.2396C65.0841 63.6893 65.7586 63.9446 66.4254 63.9446C67.0921 63.9446 67.5951 63.6016 67.5951 63.0681V63.0452C67.5951 62.4888 66.9283 62.2754 66.1875 62.0734C65.3024 61.8295 64.3198 61.5284 64.3198 60.5147V60.4918C64.3198 59.5429 65.1269 58.9141 66.2421 58.9141C66.9283 58.9141 67.6926 59.1503 68.2735 59.5238L67.8914 60.1412C67.3689 59.8097 66.7685 59.6077 66.2226 59.6077C65.5558 59.6077 65.1308 59.9507 65.1308 60.408V60.4309C65.1308 60.953 65.8288 61.155 66.5813 61.3798C67.4547 61.6351 68.3944 61.9667 68.3944 62.9576V62.9804C68.3944 64.0247 67.5093 64.6344 66.3864 64.6344C65.5792 64.6344 64.6824 64.3257 64.0508 63.8227L64.0469 63.8265Z" fill="white"/>
<path d="M72.4004 61.7879V61.765C72.4004 59.9624 73.7417 58.8953 75.0986 58.8953C76.1475 58.8953 76.822 59.4517 77.2587 60.0691V56.7383H78.1009V64.528H77.2587V63.419C76.7986 64.0822 76.1358 64.6462 75.0986 64.6462C73.7456 64.6462 72.4004 63.602 72.4004 61.7879ZM77.2899 61.7803V61.7574C77.2899 60.4883 76.2956 59.6347 75.2468 59.6347C74.1979 59.6347 73.2582 60.4236 73.2582 61.7574V61.7803C73.2582 63.0837 74.1862 63.9145 75.2468 63.9145C76.3073 63.9145 77.2899 63.0494 77.2899 61.7803Z" fill="white"/>
<path d="M79.4297 61.7871V61.7642C79.4297 60.175 80.576 58.8945 82.1357 58.8945C83.8045 58.8945 84.7676 60.1979 84.7676 61.8062C84.7676 61.9129 84.7676 61.9777 84.7559 62.0729H80.2797C80.4006 63.2696 81.2623 63.9403 82.2683 63.9403C83.0442 63.9403 83.5901 63.6317 84.0463 63.1629L84.5688 63.6202C83.9995 64.2376 83.3132 64.6568 82.2449 64.6568C80.693 64.6568 79.4297 63.4945 79.4297 61.7871ZM83.9176 61.467C83.8318 60.4647 83.2392 59.5881 82.1162 59.5881C81.1336 59.5881 80.3928 60.3885 80.2836 61.467H83.9176Z" fill="white"/>
<path d="M88.4609 59.0117H89.3889L91.2878 63.5888L93.1984 59.0117H94.103L91.6465 64.572H90.9057L88.4609 59.0117Z" fill="white"/>
<path d="M94.5312 62.9316V62.9087C94.5312 61.7463 95.5138 61.1251 96.9448 61.1251C97.6662 61.1251 98.1769 61.2204 98.6799 61.3614V61.1709C98.6799 60.18 98.0561 59.6655 96.9994 59.6655C96.3326 59.6655 95.8102 59.837 95.2838 60.0695L95.0342 59.3987C95.6581 59.1205 96.2664 58.9414 97.0852 58.9414C97.904 58.9414 98.4928 59.1434 98.91 59.5512C99.2921 59.9247 99.4871 60.4582 99.4871 61.1632V64.536H98.6799V63.7052C98.2861 64.2083 97.6311 64.6542 96.6368 64.6542C95.5879 64.6542 94.5312 64.0673 94.5312 62.9354V62.9316ZM98.6877 62.5047V61.9712C98.2744 61.853 97.7168 61.7349 97.0267 61.7349C95.9661 61.7349 95.3774 62.1846 95.3774 62.8782V62.9011C95.3774 63.5947 96.0324 63.9987 96.7967 63.9987C97.8338 63.9987 98.6838 63.3813 98.6838 62.5047H98.6877Z" fill="white"/>
<path d="M101.156 56.7422H101.998V64.532H101.156V56.7422Z" fill="white"/>
<path d="M103.406 61.7871V61.7642C103.406 60.175 104.553 58.8945 106.112 58.8945C107.781 58.8945 108.744 60.1979 108.744 61.8062C108.744 61.9129 108.744 61.9777 108.732 62.0729H104.256C104.377 63.2696 105.239 63.9403 106.245 63.9403C107.021 63.9403 107.567 63.6317 108.023 63.1629L108.545 63.6202C107.976 64.2376 107.29 64.6568 106.221 64.6568C104.67 64.6568 103.406 63.4945 103.406 61.7871ZM107.894 61.467C107.808 60.4647 107.216 59.5881 106.093 59.5881C105.11 59.5881 104.369 60.3885 104.26 61.467H107.894Z" fill="white"/>
<path d="M109.934 62.4378V59.0117H110.776V62.2359C110.776 63.261 111.345 63.9013 112.335 63.9013C113.326 63.9013 114.028 63.2077 114.028 62.1711V59.0117H114.858V64.5301H114.028V63.5697C113.646 64.1681 113.069 64.6482 112.094 64.6482C110.729 64.6482 109.934 63.7526 109.934 62.4378Z" fill="white"/>
<path d="M116.549 59.0132H117.391V60.4538C117.804 59.5353 118.623 58.876 119.695 58.9179V59.8021H119.629C118.397 59.8021 117.391 60.6672 117.391 62.3326V64.5316H116.549V59.0132Z" fill="white"/>
<path d="M123.744 59.0127H124.586V59.9731C124.957 59.3747 125.546 58.8945 126.52 58.8945C127.885 58.8945 128.68 59.7901 128.68 61.1049V64.5311H127.838V61.3069C127.838 60.2817 127.269 59.6415 126.279 59.6415C125.288 59.6415 124.586 60.3351 124.586 61.3717V64.5311H123.744V59.0127Z" fill="white"/>
<path d="M130.186 62.4378V59.0117H131.028V62.2359C131.028 63.261 131.597 63.9013 132.587 63.9013C133.578 63.9013 134.28 63.2077 134.28 62.1711V59.0117H135.11V64.5301H134.28V63.5697C133.898 64.1681 133.32 64.6482 132.346 64.6482C130.981 64.6482 130.186 63.7526 130.186 62.4378Z" fill="white"/>
<path d="M136.801 59.0128H137.643V59.9427C138.013 59.3977 138.516 58.8984 139.468 58.8984C140.419 58.8984 140.973 59.3786 141.281 59.996C141.686 59.3863 142.287 58.8984 143.269 58.8984C144.568 58.8984 145.367 59.7521 145.367 61.1165V64.5312H144.525V61.307C144.525 60.2399 143.979 59.6416 143.063 59.6416C142.213 59.6416 141.511 60.259 141.511 61.3489V64.5273H140.669V61.2841C140.669 60.2475 140.111 59.6416 139.218 59.6416C138.325 59.6416 137.647 60.3657 137.647 61.3794V64.5273H136.805V59.009L136.801 59.0128Z" fill="white"/>
<path d="M146.639 61.7873V61.7644C146.639 60.1752 147.785 58.8947 149.345 58.8947C151.014 58.8947 151.977 60.1981 151.977 61.8064C151.977 61.9131 151.977 61.9778 151.965 62.0731H147.489C147.61 63.2698 148.471 63.9405 149.477 63.9405C150.253 63.9405 150.799 63.6318 151.255 63.1631L151.778 63.6204C151.208 64.2378 150.522 64.657 149.454 64.657C147.902 64.657 146.639 63.4946 146.639 61.7873ZM151.127 61.4672C151.041 60.4649 150.448 59.5883 149.325 59.5883C148.343 59.5883 147.602 60.3886 147.493 61.4672H151.127ZM150.023 56.6348L150.897 57.0311L149.653 58.182H148.998L150.023 56.6348Z" fill="white"/>
<path d="M153.256 59.0132H154.098V60.4538C154.511 59.5353 155.33 58.876 156.402 58.9179V59.8021H156.336C155.104 59.8021 154.098 60.6672 154.098 62.3326V64.5316H153.256V59.0132Z" fill="white"/>
<path d="M157.502 56.9023H158.461V57.8094H157.502V56.9023ZM157.557 59.0137H158.399V64.532H157.557V59.0137Z" fill="white"/>
<path d="M164.684 63.4221C164.224 64.0853 163.562 64.6493 162.524 64.6493C161.171 64.6493 159.826 63.6051 159.826 61.791V61.7682C159.826 59.9655 161.167 58.8984 162.524 58.8984C163.573 58.8984 164.248 59.4549 164.684 60.0722V59.0166H165.527V66.2423H164.684V63.426V63.4221ZM164.72 61.7796V61.7567C164.72 60.4876 163.725 59.634 162.676 59.634C161.628 59.634 160.688 60.4229 160.688 61.7567V61.7796C160.688 63.083 161.616 63.9138 162.676 63.9138C163.737 63.9138 164.72 63.0487 164.72 61.7796Z" fill="white"/>
<path d="M167.117 62.4378V59.0117H167.959V62.2359C167.959 63.261 168.529 63.9013 169.519 63.9013C170.509 63.9013 171.211 63.2077 171.211 62.1711V59.0117H172.042V64.5301H171.211V63.5697C170.829 64.1681 170.252 64.6482 169.277 64.6482C167.913 64.6482 167.117 63.7526 167.117 62.4378Z" fill="white"/>
<path d="M173.387 61.7871V61.7642C173.387 60.175 174.533 58.8945 176.093 58.8945C177.762 58.8945 178.725 60.1979 178.725 61.8062C178.725 61.9129 178.725 61.9777 178.713 62.0729H174.237C174.358 63.2696 175.219 63.9403 176.225 63.9403C177.001 63.9403 177.547 63.6317 178.003 63.1629L178.526 63.6202C177.957 64.2376 177.27 64.6568 176.202 64.6568C174.65 64.6568 173.387 63.4945 173.387 61.7871ZM177.871 61.467C177.785 60.4647 177.192 59.5881 176.069 59.5881C175.087 59.5881 174.346 60.3885 174.237 61.467H177.871Z" fill="white"/>
</svg>
